<svg xmlns="http://www.w3.org/2000/svg" viewBox="0 0 217.74 171.66"><path d="M153 102.93a5.88 5.88 0 0 0-5.9 5.86v.14c0 3.07 1.94 5.16 4.86 5.16h.15a5.83 5.83 0 0 0 6-5.6v-.4a4.9 4.9 0 0 0-4.63-5.16 4.68 4.68 0 0 0-.48 0zM18.72 133.11c-2.62-1.42-4-2.62-4-4.26 0-2.09 1.87-3.44 4.78-3.44a17.13 17.13 0 0 1 6.42 1.42l2.4-7.32s-2.2-1.72-8.67-1.72c-9 0-15.24 5.16-15.24 12.41 0 4.1 2.91 7.24 6.8 9.48 3.14 1.8 4.26 3.07 4.26 4.93s-1.57 3.52-4.49 3.52a20.06 20.06 0 0 1-8.44-2.25L0 153.21a19.5 19.5 0 0 0 10.2 2.58c9.27 0 15.91-4.56 15.91-12.78 0-4.45-3.36-7.58-7.39-9.9zm36.9-15.39a14 14 0 0 0-10.9 5.45l-.15-.07 4-20.7H38.22l-10 52.67h10.29l3.43-18c1.35-6.8 4.86-11 8.15-11 2.31 0 3.21 1.57 3.21 3.81a23.17 23.17 0 0 1-.45 4.55L49 155.05h10.3l4-21.29A37.89 37.89 0 0 0 64 127c.07-5.77-3-9.28-8.38-9.28zm31.76 0c-12.41 0-20.62 11.21-20.62 23.68 0 8 4.93 14.42 14.19 14.42 12.18 0 20.4-10.91 20.4-23.68 0-7.35-4.35-14.42-13.97-14.42zM82.3 147.9c-3.52 0-5-3-5-6.72 0-5.9 3.06-15.54 8.67-15.54 3.66 0 4.85 3.14 4.85 6.2-.01 6.35-3.07 16.06-8.52 16.06zm45.42-30.18c-7 0-10.91 6.13-10.91 6.13h-.15l.6-5.53h-9.12c-.44 3.73-1.27 9.41-2.09 13.67l-7.17 37.73h10.31l2.81-15.24h.22a12 12 0 0 0 6 1.34c12.11 0 20-12.4 20-24.95.11-6.95-2.96-13.15-10.5-13.15zm-9.86 30.33a6.55 6.55 0 0 1-4.26-1.49l1.72-9.64c1.19-6.43 4.55-10.68 8.14-10.68 3.14 0 4.11 2.91 4.11 5.67 0 6.65-3.96 16.14-9.71 16.14zm20.77 7.02h10.31l7.02-36.53h-10.39l-6.94 36.53zm43.55-36.6H175l.37-1.72c.6-3.51 2.69-6.65 6.13-6.65a10.76 10.76 0 0 1 3.28.52l2-8.07a13.7 13.7 0 0 0-5.6-.89 15.33 15.33 0 0 0-10.09 3.43c-3.51 3-5.15 7.33-6 11.66l-.3 1.72H160l-1.5 7.77h4.78l-5.45 28.83h10.36l5.45-28.83h7.1zm24.82.07s-6.47 16.25-9.34 25.1h-.13c-.2-2.85-2.55-25.1-2.55-25.1h-10.86l6.2 33.54a2.16 2.16 0 0 1-.22 1.72 17.55 17.55 0 0 1-5.6 6.2 22.44 22.44 0 0 1-5.83 2.92l2.84 8.74a23.6 23.6 0 0 0 10.08-5.6c4.71-4.41 9-11.21 13.52-20.47l12.63-27z"/><path fill="#95bf46" d="M136.93 16.35a.84.84 0 0 0-.74-.69l-6.32-.11s-5-4.89-5.53-5.39a2.06 2.06 0 0 0-1.85-.23l-2.53.78a17 17 0 0 0-1.21-3c-1.79-3.42-4.41-5.23-7.58-5.24h-.65l-.29-.33A6.69 6.69 0 0 0 105 0c-4.09.12-8.17 3.07-11.48 8.33a33.08 33.08 0 0 0-4.59 11.93l-8.07 2.5c-2.37.74-2.45.82-2.76 3-.23 1.7-6.44 49.72-6.44 49.72l52 9 22.55-5.61s-9.21-62.08-9.28-62.52zm-19.58-4.83l-4 1.25a22.3 22.3 0 0 0-1.25-7.46c3.08.59 4.61 4.11 5.25 6.21zm-6.76 2.09l-8.69 2.69a20.56 20.56 0 0 1 4.39-8.51 8.61 8.61 0 0 1 2.95-2.15 19.55 19.55 0 0 1 1.35 8zM105 2.79a4.23 4.23 0 0 1 2.47.65 11.62 11.62 0 0 0-3.18 2.48 23.87 23.87 0 0 0-5.39 11.3l-7.14 2.21C93.18 12.86 98.69 3 105 2.79z"/><path fill="#5f8e3e" d="M136.19 15.66l-6.32-.11s-5-4.89-5.53-5.39a1.33 1.33 0 0 0-.7-.32v74.77L146.19 79s-9.2-62.22-9.26-62.65a.84.84 0 0 0-.74-.69z"/><path fill="#fff" d="M111.14 27.26l-2.63 9.8a15 15 0 0 0-6.38-1.06c-5.08.32-5.14 3.53-5.09 4.33.28 4.38 11.81 5.34 12.46 15.61.51 8.08-4.28 13.6-11.19 14a16.8 16.8 0 0 1-12.86-4.37l1.76-7.47s4.59 3.46 8.27 3.23A3.25 3.25 0 0 0 98.66 58v-.17c-.37-5.76-9.76-5.42-10.35-14.83-.5-7.91 4.69-15.92 16.15-16.65a14.56 14.56 0 0 1 6.68.91z"/></svg>